<?xml version="1.0" standalone="no"?>
<!DOCTYPE svg PUBLIC "-//W3C//DTD SVG 20010904//EN"
 "http://www.w3.org/TR/2001/REC-SVG-20010904/DTD/svg10.dtd">
<svg version="1.0" xmlns="http://www.w3.org/2000/svg"
 width="512.000000pt" height="512.000000pt" viewBox="0 0 512.000000 512.000000"
 preserveAspectRatio="xMidYMid meet">

<g transform="translate(0.000000,512.000000) scale(0.100000,-0.100000)"
fill="#000000" stroke="none">
<path d="M3383 5102 c-142 -51 -223 -163 -223 -308 0 -91 31 -166 94 -230 70
-70 143 -97 246 -92 127 6 224 71 279 187 38 81 37 193 -2 272 -32 67 -100
133 -165 161 -65 29 -163 33 -229 10z m177 -154 c103 -52 131 -181 58 -264
-41 -46 -77 -64 -133 -64 -93 0 -164 62 -173 151 -6 64 2 92 40 135 59 67 130
81 208 42z"/>
<path d="M1710 4843 c-33 -12 -50 -37 -50 -73 0 -29 8 -44 40 -75 l40 -39 -40
-41 c-48 -49 -56 -103 -18 -129 38 -27 75 -20 121 23 l42 39 42 -39 c49 -45
91 -51 123 -19 34 34 26 80 -20 125 l-40 39 40 41 c47 48 55 99 20 130 -35 31
-76 23 -123 -23 l-43 -42 -39 39 c-41 40 -69 53 -95 44z"/>
<path d="M1307 4379 c-248 -58 -345 -371 -176 -564 18 -20 30 -37 28 -39 -2
-2 -157 -85 -344 -186 -423 -227 -409 -218 -430 -275 -30 -77 -21 -93 230
-381 l225 -259 -235 -79 c-192 -64 -240 -84 -265 -109 -52 -54 -53 -142 -1
-191 17 -16 148 -93 293 -171 l263 -143 3 -160 c2 -144 4 -161 22 -177 28 -25
76 -23 103 3 19 19 22 37 27 135 l5 113 255 -139 c442 -241 515 -277 559 -277
23 0 155 39 322 95 156 52 284 95 286 95 2 0 3 -333 3 -740 0 -407 -2 -740 -4
-740 -6 0 -1409 760 -1416 767 -3 2 -7 95 -10 205 -5 195 -6 200 -29 219 -30
25 -76 24 -102 -2 -19 -19 -20 -29 -17 -239 l3 -218 30 -43 c28 -40 90 -75
795 -458 l765 -415 65 -1 65 0 745 404 c410 222 759 414 776 427 18 13 41 43
53 67 21 42 21 55 21 559 l0 516 263 142 c144 79 277 156 294 173 56 52 57
139 3 194 -25 25 -73 45 -265 109 l-235 79 225 259 c250 288 260 304 231 381
-10 24 -30 53 -44 63 -69 48 -593 322 -615 322 -61 0 -94 -77 -51 -120 10 -11
141 -85 289 -166 149 -80 272 -147 273 -149 2 -2 -99 -121 -224 -265 -163
-187 -232 -259 -243 -255 -9 3 -337 180 -729 392 -625 338 -711 387 -700 401
7 9 66 77 131 151 l118 136 83 -3 c68 -3 93 0 130 16 59 26 109 65 126 97 7
14 17 25 21 25 4 0 99 -50 211 -111 112 -61 217 -113 235 -116 25 -4 37 0 58
21 22 22 26 33 21 59 -4 17 -12 37 -19 43 -6 7 -114 67 -239 134 l-227 122
-10 50 c-20 93 -68 155 -153 197 -121 61 -259 35 -347 -66 -78 -88 -93 -217
-38 -323 24 -45 26 -55 14 -69 -118 -138 -241 -276 -247 -276 -4 0 -116 124
-248 276 -155 177 -252 281 -272 289 -50 21 -107 7 -208 -49 -50 -28 -94 -51
-96 -51 -3 0 -8 15 -11 33 -23 106 -124 214 -232 247 -69 21 -123 24 -186 9z
m158 -158 c79 -36 115 -95 115 -185 0 -175 -237 -254 -343 -115 -76 102 -46
238 65 293 61 31 108 33 163 7z m1669 -11 c70 -61 70 -148 1 -209 -86 -75
-225 -12 -225 102 0 81 58 137 142 137 38 0 54 -6 82 -30z m-920 -425 c124
-142 222 -262 218 -266 -11 -10 -1435 -779 -1442 -779 -8 0 -463 520 -458 525
1 1 181 99 399 217 l396 215 79 5 c117 7 205 56 269 150 29 45 50 60 167 124
73 40 136 72 139 71 4 -1 108 -119 233 -262z m1062 -756 c387 -210 704 -385
704 -388 0 -7 -631 -353 -654 -359 -8 -2 -11 35 -11 120 0 143 -20 220 -88
353 -51 98 -188 241 -287 298 -94 54 -192 84 -225 69 -54 -25 -57 -103 -5
-128 14 -7 66 -31 115 -55 168 -79 290 -232 331 -416 20 -90 15 -230 -11 -305
l-16 -46 -280 -151 c-153 -83 -284 -151 -289 -151 -5 0 -135 68 -289 151
l-280 152 -16 46 c-9 25 -19 87 -22 137 -11 181 47 335 176 465 73 73 142 115
274 168 54 22 61 95 11 128 -23 14 -32 15 -73 4 -98 -25 -209 -91 -296 -173
-168 -159 -252 -358 -243 -579 2 -59 -1 -89 -7 -87 -22 6 -655 352 -655 358 0
4 240 137 533 295 292 159 609 331 702 382 94 51 176 93 184 93 7 0 330 -172
717 -381z m-1610 -850 c387 -210 703 -383 702 -384 -8 -7 -482 -165 -494 -165
-17 0 -1387 741 -1394 754 -4 6 431 165 478 175 2 1 320 -171 708 -380z m2739
296 c127 -43 234 -81 238 -85 9 -8 -1373 -760 -1396 -760 -8 0 -123 37 -256
83 l-241 83 702 382 c387 210 708 380 713 378 6 -1 114 -38 240 -81z m-335
-1042 c0 -252 -4 -463 -8 -470 -6 -10 -1405 -773 -1417 -773 -3 0 -5 333 -5
740 0 407 1 740 3 740 1 0 130 -43 287 -95 157 -52 301 -95 320 -95 45 0 110
32 500 244 168 91 308 166 313 166 4 0 7 -206 7 -457z"/>
<path d="M2203 2530 c-72 -29 -45 -140 34 -140 32 0 73 37 73 66 0 26 -23 62
-47 73 -28 13 -30 13 -60 1z"/>
<path d="M2854 2529 c-22 -11 -44 -48 -44 -73 0 -7 9 -25 21 -40 41 -52 129
-22 129 45 0 53 -59 91 -106 68z"/>
<path d="M2424 2286 c-53 -25 -94 -67 -94 -96 0 -10 9 -29 21 -44 25 -32 64
-34 116 -6 53 28 120 26 178 -5 42 -22 50 -23 78 -11 62 25 62 97 0 138 -56
37 -98 48 -177 48 -54 0 -84 -6 -122 -24z"/>
<path d="M3040 829 c-104 -55 -130 -78 -130 -116 0 -30 42 -73 71 -73 28 0
208 95 232 122 37 44 3 118 -54 118 -13 0 -67 -23 -119 -51z"/>
<path d="M3897 4332 c-30 -33 -22 -82 23 -127 l40 -41 -40 -39 c-32 -31 -40
-46 -40 -75 0 -46 25 -70 70 -70 26 0 44 9 75 40 l41 40 39 -40 c31 -32 46
-40 75 -40 46 0 70 25 70 71 0 28 -9 43 -40 74 l-40 39 40 41 c32 32 40 48 40
76 0 45 -25 69 -70 69 -26 0 -44 -9 -75 -40 l-41 -40 -39 40 c-31 32 -46 40
-75 40 -23 0 -43 -7 -53 -18z"/>
</g>
</svg>
