<?xml version="1.0" standalone="no"?>
<!DOCTYPE svg PUBLIC "-//W3C//DTD SVG 20010904//EN"
 "http://www.w3.org/TR/2001/REC-SVG-20010904/DTD/svg10.dtd">
<svg version="1.0" xmlns="http://www.w3.org/2000/svg"
 width="512.000000pt" height="512.000000pt" viewBox="0 0 512.000000 512.000000"
 preserveAspectRatio="xMidYMid meet">

<g transform="translate(0.000000,512.000000) scale(0.100000,-0.100000)"
fill="#000000" stroke="none">
<path d="M397 4310 c-20 -4 -49 -18 -64 -31 -55 -51 -53 -15 -53 -991 0 -1007
-4 -946 69 -995 l34 -23 1443 2 1442 3 27 25 c58 54 55 2 55 992 0 872 -1 915
-19 948 -10 19 -34 44 -52 55 -34 20 -53 20 -1439 21 -773 1 -1422 -1 -1443
-6z"/>
<path d="M3650 3003 c0 -327 -5 -608 -10 -648 -28 -193 -182 -347 -375 -375
-42 -6 -423 -10 -940 -10 l-870 -1 72 -23 c200 -65 379 -230 457 -422 13 -32
27 -76 31 -97 l7 -37 523 0 524 0 16 58 c55 189 192 355 367 447 226 119 502
111 719 -21 153 -92 279 -257 326 -424 l17 -62 117 4 c132 3 159 15 191 79 17
31 18 86 18 709 l0 675 -24 57 c-75 183 -371 476 -601 595 -129 66 -163 73
-377 73 l-188 0 0 -577z m484 197 c109 -27 190 -74 266 -151 111 -112 185
-289 197 -471 l6 -88 -357 0 -356 0 0 365 0 365 83 0 c51 0 114 -8 161 -20z"/>
<path d="M280 1754 c0 -217 2 -253 18 -283 32 -63 60 -76 180 -79 l107 -4 13
53 c6 30 31 92 54 139 34 68 60 103 133 176 98 100 172 146 295 188 l75 25
-355 1 c-328 1 -458 7 -502 25 -17 7 -18 -9 -18 -241z"/>
<path d="M1205 1676 c-83 -20 -146 -56 -211 -120 -71 -71 -109 -145 -125 -244
-31 -187 70 -377 246 -463 68 -33 74 -34 190 -34 116 0 122 1 188 33 132 65
226 193 246 336 43 306 -238 564 -534 492z"/>
<path d="M3700 1679 c-111 -22 -238 -116 -293 -218 -122 -224 -37 -496 191
-608 66 -33 85 -38 167 -41 67 -3 108 0 150 13 118 34 223 126 277 242 41 87
50 217 20 309 -69 219 -286 347 -512 303z"/>
</g>
</svg>
